<?xml version="1.0" encoding="UTF-8" standalone="no"?>
<!-- Created with Inkscape (http://www.inkscape.org/) -->

<svg
   width="14.22952mm"
   height="8.1853828mm"
   viewBox="0 0 14.229519 8.185383"
   version="1.1"
   id="svg5"
   inkscape:version="1.1.2 (b8e25be8, 2022-02-05)"
   sodipodi:docname="speechcatcher.svg"
   xmlns:inkscape="http://www.inkscape.org/namespaces/inkscape"
   xmlns:sodipodi="http://sodipodi.sourceforge.net/DTD/sodipodi-0.dtd"
   xmlns="http://www.w3.org/2000/svg"
   xmlns:svg="http://www.w3.org/2000/svg">
  <sodipodi:namedview
     id="namedview7"
     pagecolor="#ffffff"
     bordercolor="#666666"
     borderopacity="1.0"
     inkscape:pageshadow="2"
     inkscape:pageopacity="0.0"
     inkscape:pagecheckerboard="0"
     inkscape:document-units="mm"
     showgrid="false"
     fit-margin-top="0"
     fit-margin-left="1.1"
     fit-margin-right="2"
     fit-margin-bottom="0"
     inkscape:zoom="5.12"
     inkscape:cx="39.160156"
     inkscape:cy="22.363281"
     inkscape:window-width="1312"
     inkscape:window-height="947"
     inkscape:window-x="284"
     inkscape:window-y="25"
     inkscape:window-maximized="0"
     inkscape:current-layer="layer1" />
  <defs
     id="defs2" />
  <g
     inkscape:label="Layer 1"
     inkscape:groupmode="layer"
     id="layer1"
     transform="translate(-1.2873889,-1.4784757)">
    <path
       style="fill:#03fc70;stroke:#03fc70;stroke-width:0.0342412;stroke-opacity:1"
       d="M 5.2465327,9.5431418 V 9.4404195 H 3.9453657 2.6441983 V 8.4987832 7.5571513 H 2.5243539 2.4045095 V 8.6015099 9.645864 H 3.8255213 5.2465327 Z M 13.481551,8.6015099 V 7.5742694 l -0.111284,-0.010704 -0.111284,-0.010749 v 0.9437994 0.9438037 h -1.301167 -1.301168 v 0.1031027 0.1031071 l 1.412452,-0.00894 1.412451,-0.00894 z M 5.7601509,8.8069544 c 0,-0.044569 -0.1425999,-0.051359 -1.077956,-0.051359 H 3.6042387 l -0.0092,-0.7789916 c -0.00787,-0.6655118 -0.01669,-0.7789871 -0.06057,-0.7789871 -0.04399,0 -0.052678,0.1191637 -0.060531,0.8303505 l -0.00917,0.8303506 h 1.1476904 c 0.9973416,0 1.1476898,-0.00672 1.1476898,-0.051363 z M 12.429241,8.0279672 c -0.0079,-0.7111868 -0.01654,-0.8303505 -0.06053,-0.8303505 -0.04388,0 -0.0527,0.1134753 -0.06056,0.7789872 l -0.0092,0.7789916 h -1.058814 c -0.960526,0 -1.140607,0.01358 -1.07334,0.080827 0.01205,0.012031 0.528086,0.021895 1.14676,0.021895 h 1.124862 z M 8.4652088,8.310846 C 8.493456,8.3104966 8.5705006,8.2642156 8.6364153,8.2078938 L 8.7562597,8.10549 8.7733779,5.6028626 c 0.016605,-2.4273869 0.019118,-2.5040913 0.083587,-2.5512127 0.1068882,-0.078129 0.3462904,-0.074365 0.4300305,0.00677 0.043981,0.042596 0.053824,0.315974 0.068484,1.9015365 l 0.017114,1.8517741 0.1300618,0.1124004 c 0.1775858,0.1534797 0.3293443,0.1777105 0.5236938,0.083627 0.24784,-0.1199731 0.257436,-0.1598315 0.253537,-1.0528646 -0.0019,-0.4276268 -0.0026,-0.8115734 -0.0017,-0.8532143 0.0028,-0.1229589 0.131219,-0.2153395 0.299254,-0.2153395 0.174612,0 0.284132,0.088661 0.285494,0.2311262 5.3e-4,0.051788 1.01e-4,0.5833224 -8.85e-4,1.1811887 -0.0019,1.2018458 -0.0045,1.1866562 0.221571,1.3263793 0.144176,0.089107 0.338906,0.088024 0.485702,-0.00265 0.197973,-0.1223573 0.223745,-0.2142734 0.211191,-0.753248 -0.0061,-0.2619256 -5.31e-4,-0.4762079 0.01228,-0.4761814 0.01286,2.66e-5 0.03263,-0.029105 0.04394,-0.064735 0.02972,-0.093632 0.119811,-0.1092997 0.617517,-0.1073844 0.444864,0.00177 0.603918,-0.030742 0.496497,-0.101236 -0.0374,-0.024549 -0.03918,-0.033838 -0.0065,-0.034236 0.02465,-3.494e-4 0.0353,-0.015924 0.02366,-0.034767 -0.02802,-0.045334 -0.852568,-0.04433 -1.016626,0.00133 -0.08137,0.022603 -0.164793,0.083627 -0.23432,0.1714117 l -0.107967,0.1363216 0.01175,0.5103691 c 0.0065,0.280707 0.007,0.5055831 10e-4,0.4997311 -0.0058,-0.00584 -0.0494,0.028132 -0.09677,0.075492 -0.07427,0.074267 -0.107891,0.08368 -0.244091,0.068327 -0.09631,-0.010837 -0.175479,-0.041756 -0.202844,-0.079186 -0.03485,-0.047661 -0.04488,-0.3115639 -0.04488,-1.1805166 0,-1.1075142 -0.01265,-1.3331467 -0.07478,-1.3331467 -0.01759,0 -0.02246,0.015437 -0.01081,0.034236 0.01165,0.018843 0.0038,0.034236 -0.01741,0.034236 -0.02285,0 -0.0298,-0.027601 -0.01708,-0.067725 0.03302,-0.1040138 -0.14528,-0.1976949 -0.355776,-0.1869418 -0.186438,0.00951 -0.263279,0.041712 -0.363433,0.1523074 -0.06366,0.070286 -0.06883,0.1335748 -0.07929,0.9701487 -0.0073,0.5812834 -0.02431,0.9107794 -0.04863,0.9400837 -0.04022,0.048466 -0.2489172,0.1442173 -0.3124451,0.1433547 -0.021241,-3.45e-4 -0.015504,-0.015437 0.012735,-0.033705 0.04153,-0.026849 0.036616,-0.033307 -0.025682,-0.033705 C 9.698126,6.8726634 9.6326373,6.8416473 9.5949712,6.8040006 9.5282143,6.7372441 9.5264892,6.6898662 9.5264892,4.9219269 V 3.1083344 L 9.4206383,2.9877774 C 9.3562245,2.914417 9.2611868,2.8527872 9.1778687,2.8303522 9.0586267,2.7982391 9.0203568,2.803724 8.8813855,2.8726832 8.5856592,3.0194527 8.6020887,2.8585286 8.6020277,5.6088252 8.6019936,7.8772964 8.5982679,8.0294579 8.541405,8.0809008 8.423755,8.1873741 8.055081,8.1465868 8.0536005,8.0269322 8.0533236,8.0040637 8.053532,7.0578537 8.0540871,5.9242639 8.0549717,4.113454 8.0484606,3.8465654 8.0003365,3.7263003 7.900135,3.4758708 7.6247077,3.3849145 7.3578156,3.5141146 7.1745795,3.602815 7.0825178,3.7658357 7.1766412,3.8349277 c 0.05137,0.037731 0.055638,0.1932495 0.047178,1.719283 l -0.0093,1.6778193 -0.00823,-1.6863784 c -0.00535,-1.0959429 -0.020214,-1.6863825 -0.042468,-1.6863825 -0.0475,0 -0.046822,3.4359388 7.077e-4,3.537657 0.02761,0.059104 0.026659,0.063505 -0.00454,0.020967 C 7.1249231,7.3700855 7.1116196,7.3729563 7.0410034,7.4435919 6.9333899,7.5512064 6.7154959,7.5535551 6.6173058,7.4481479 6.54929,7.3751414 6.5474858,7.3351769 6.547361,5.8987282 6.5472239,4.4892176 6.5442647,4.4193516 6.479382,4.3129713 6.4017412,4.1856289 6.3150511,4.1555549 6.3806845,4.2787349 c 0.037408,0.070202 0.035926,0.072812 -0.016689,0.029415 C 6.3301748,4.2802389 6.3143876,4.2348868 6.3258887,4.1986511 6.3551444,4.106474 6.1102298,4.0455209 5.9384254,4.1022232 5.8045016,4.146412 5.7730103,4.1710895 5.6814978,4.3034789 c -0.052456,0.07589 -0.05852,0.2081118 -0.05852,1.2759888 v 1.1913316 l -0.111284,0.069614 c -0.1280072,0.080079 -0.3035918,0.0701 -0.4065817,-0.02309 -0.057451,-0.051991 -0.064236,-0.1130861 -0.064236,-0.5784526 0,-0.4887922 -0.035267,-0.7359927 -0.1049985,-0.7359927 -0.016397,0 -0.021143,0.026982 -0.010541,0.059922 0.015716,0.048851 0.01277,0.050735 -0.015937,0.010174 C 4.8900346,5.545638 4.8816386,5.511194 4.8907416,5.49646 4.9208474,5.4477507 4.6836479,5.331909 4.5535375,5.3317807 4.449379,5.3316745 4.3971155,5.3590724 4.2710475,5.4798683 4.1475963,5.5981562 4.1161409,5.65174 4.1152717,5.7452353 4.1130601,5.9811387 4.0747543,5.9973235 3.4729569,6.0164764 l -0.5379191,0.017118 v 0.085604 0.085604 l 0.4622568,0.00809 c 0.4220115,0.00743 0.47536,0.00133 0.6127645,-0.069393 0.1617322,-0.083269 0.2775076,-0.2516857 0.2775076,-0.4036835 0,-0.1281253 0.1114044,-0.2131411 0.2927225,-0.2233722 0.1202867,-0.00677 0.1691845,0.00725 0.2218381,0.063784 0.06108,0.065562 0.067541,0.1222423 0.067541,0.5925982 0,0.6284402 0.029375,0.7265357 0.2494754,0.8330841 0.1762105,0.085303 0.2179687,0.087834 0.3739709,0.022647 0.1343816,-0.056145 0.2097913,-0.1319514 0.1723649,-0.173265 -0.01396,-0.015437 -0.0069,-0.017428 0.015698,-0.00447 0.097205,0.055765 0.1130019,-0.1248343 0.1130019,-1.2919394 0,-1.0063004 0.00763,-1.1887614 0.051564,-1.2326892 0.074834,-0.074838 0.1779949,-0.099816 0.3099618,-0.075059 0.2248744,0.042198 0.2205749,0.00973 0.2205749,1.6655886 0,1.4635901 0.00146,1.4962473 0.071506,1.5852794 0.2030095,0.2580863 0.587948,0.2534153 0.7720076,-0.00938 0.04529,-0.06466 0.051676,-0.3136428 0.048276,-1.8820518 -0.00389,-1.7894056 -0.00318,-1.8084523 0.06825,-1.8992803 0.060257,-0.076607 0.099139,-0.091748 0.2355818,-0.091748 0.299943,0 0.2800267,-0.1598094 0.2779186,2.2300458 -0.00173,1.9399528 0.00279,2.1106833 0.058412,2.2213144 0.068078,0.1353795 0.3254279,0.2876516 0.4369194,0.2585198 0.037664,-0.00986 0.091595,-0.018136 0.1198439,-0.018445 z M 8.2533412,8.252826 c 0.024717,-0.00991 0.054251,-0.00867 0.065629,0.00265 0.011377,0.011368 -0.00885,0.019463 -0.044942,0.018003 -0.039889,-0.00177 -0.048003,-0.00978 -0.020688,-0.020701 z M 8.0885552,8.205714 c 0,-0.019949 0.015411,-0.026761 0.034241,-0.015128 0.018835,0.011633 0.034241,0.027955 0.034241,0.036271 0,0.00832 -0.015411,0.015083 -0.034241,0.015083 -0.018834,0 -0.034241,-0.016322 -0.034241,-0.036271 z M 7.9729412,8.0865627 c -0.033042,-0.086104 -0.023293,-0.1083222 0.017069,-0.038925 0.019985,0.034369 0.029123,0.069702 0.020312,0.078522 -0.00882,0.0088 -0.025637,-0.00902 -0.037381,-0.039633 z m 0.6634741,-0.045993 c 0,-0.018843 0.015406,-0.043746 0.034241,-0.055402 0.018834,-0.011633 0.034241,-0.00575 0.034241,0.013093 0,0.018843 -0.015411,0.043746 -0.034241,0.055402 -0.018834,0.011633 -0.034241,0.00575 -0.034241,-0.013093 z M 11.170266,7.591392 c -0.03086,-0.019949 -0.03509,-0.033396 -0.01057,-0.033705 0.02243,-3.45e-4 0.0503,0.014862 0.06194,0.033705 0.02627,0.042508 0.01441,0.042508 -0.05136,0 z M 6.5829323,7.5584827 c -0.027703,-0.017516 -0.038421,-0.043791 -0.023819,-0.058405 0.014606,-0.014597 0.037271,-0.010041 0.05037,0.010129 0.013102,0.02017 0.046932,0.045476 0.075182,0.056229 0.045655,0.017384 0.045655,0.019772 0,0.021718 -0.028247,0.00133 -0.074029,-0.012164 -0.1017323,-0.02968 z m 4.9126257,-0.00133 c 0.01165,-0.018843 0.03657,-0.034236 0.0554,-0.034236 0.01883,0 0.02472,0.015437 0.01308,0.034236 -0.01165,0.018843 -0.03657,0.034236 -0.0554,0.034236 -0.01883,0 -0.02472,-0.015393 -0.01308,-0.034236 z M 10.944212,7.4063301 c -0.01016,-0.026451 -0.01306,-0.099648 -0.0065,-0.1626448 0.0105,-0.100431 0.01398,-0.094504 0.02834,0.048103 0.01679,0.1667938 0.01061,0.1991502 -0.02186,0.1145414 z M 9.7663767,6.9961664 c 0,-0.00721 0.038054,-0.020391 0.084566,-0.029282 0.046511,-0.00889 0.076421,-0.0031 0.066463,0.013137 -0.017534,0.028353 -0.1510286,0.042641 -0.151029,0.016145 z M 9.441085,6.7353642 c -0.011646,-0.018843 -0.00484,-0.034236 0.015106,-0.034236 0.019945,0 0.036262,0.015393 0.036262,0.034236 0,0.018843 -0.0068,0.034236 -0.015106,0.034236 -0.00831,0 -0.024624,-0.015393 -0.036262,-0.034236 z m 2.370634,-0.5178665 c 0.02323,-0.023399 0.05086,-0.033927 0.0614,-0.023399 0.01054,0.010528 -0.0085,0.02968 -0.04223,0.042552 -0.0488,0.018578 -0.05273,0.014641 -0.01917,-0.019153 z m 0.173917,-0.1218664 c 0.02472,-0.00991 0.05425,-0.00867 0.06563,0.00265 0.01139,0.011368 -0.0088,0.019463 -0.04494,0.018003 -0.03989,-0.00177 -0.048,-0.00978 -0.02069,-0.020701 z M 10.262875,4.9205822 c 0.03409,-0.037642 0.06968,-0.068481 0.0791,-0.068481 0.0094,0 -0.01076,0.03083 -0.04486,0.068481 -0.03409,0.037642 -0.06968,0.068481 -0.0791,0.068481 -0.0094,0 0.01076,-0.03083 0.04486,-0.068481 z m 0.496497,-0.068481 c -0.03086,-0.019949 -0.03509,-0.033396 -0.01057,-0.033706 0.02243,-3.45e-4 0.0503,0.014862 0.06194,0.033706 0.02627,0.042508 0.01441,0.042508 -0.05136,0 z M 10.41696,4.8178643 c 0,-0.018843 0.01632,-0.034236 0.03626,-0.034236 0.01994,0 0.02674,0.015393 0.01511,0.034236 -0.01165,0.018843 -0.02796,0.034236 -0.03626,0.034236 -0.0083,0 -0.01511,-0.015437 -0.01511,-0.034236 z M 5.7601509,4.3062656 c 0,-0.017737 0.015234,-0.041623 0.033847,-0.053142 0.019409,-0.011987 0.025151,0.00177 0.013456,0.032202 -0.022762,0.059321 -0.047306,0.070171 -0.047306,0.020922 z M 7.2667655,3.6194157 c 0,-0.018843 0.016318,-0.034236 0.036262,-0.034236 0.019945,0 0.026739,0.015393 0.015097,0.034236 -0.011638,0.018843 -0.027955,0.034236 -0.036262,0.034236 -0.00831,0 -0.015097,-0.015437 -0.015097,-0.034236 z M 9.4293704,3.1057999 c 0,-0.047082 0.00777,-0.066345 0.017269,-0.042817 0.0095,0.023532 0.0095,0.062063 0,0.085604 -0.0095,0.023532 -0.017269,0.00442 -0.017269,-0.042818 z m -0.416301,-0.205449 c 0.067056,-0.043348 0.1123863,-0.043348 0.085602,0 -0.011647,0.018843 -0.047218,0.034015 -0.079063,0.033706 -0.049898,-4.424e-4 -0.050803,-0.00509 -0.00654,-0.033706 z m -5.4180338,0.2625361 0.0092,-0.7761519 h 1.0779562 c 0.9353556,0 1.077956,-0.00681 1.077956,-0.051363 0,-0.044631 -0.150281,-0.051363 -1.1470816,-0.051363 H 3.4659898 v 0.8160854 c 0,0.4488455 0.010594,0.8266748 0.023541,0.8396218 0.080041,0.080044 0.09681,-0.043437 0.1055063,-0.7768286 z M 12.420072,3.12007 V 2.301136 h -1.1214 c -0.724758,0 -1.121408,0.01212 -1.121424,0.034236 -1.4e-5,0.021895 0.382651,0.03751 1.061479,0.043304 l 1.061501,0.00907 v 0.7642355 c 0,0.4203285 0.01059,0.7748249 0.02354,0.7877719 0.08173,0.081738 0.0963,-0.042287 0.0963,-0.8196462 z M 2.6441983,2.6435475 V 1.7019111 h 1.3011674 1.301167 V 1.5991889 1.4964666 H 3.8255213 2.4045095 V 2.5408208 3.5851794 H 2.5243539 2.6441983 Z M 13.490613,2.5493845 13.481513,1.513585 12.069061,1.504645 10.656611,1.495705 V 1.5988173 1.70192 h 1.301166 1.301168 v 0.9416319 0.9416363 h 0.120345 0.120348 z"
       id="path1020"
       sodipodi:nodetypes="ccccccccccccccccccccccccccsscssscsssssscssscscscsssscssscsccscssscscccscccscssscscsssscsccscsscccsssscscsssscsscsssssscssssscssscscccccscsssscssssscsssssscccccccccssscccscccscscssccssscsscsssscssscssssscsssssssscsscccccsssssscsssssssscccccssssscssccsscssccssscssscccssscscsccccccccccccccccccccccccccc" />
  </g>
</svg>
